<?xml version="1.0" encoding="utf-8"?>
<!--Designed by Vexels.com - 2018 All Rights Reserved - https://vexels.com/terms-and-conditions/-->
<svg version="1.1" id="Layer_1" xmlns="http://www.w3.org/2000/svg" xmlns:xlink="http://www.w3.org/1999/xlink" x="0px" y="0px"
	 viewBox="0 0 1200 1200" enable-background="new 0 0 1200 1200" xml:space="preserve">
<g>
	<g>
		<g>
			<path fill="#2B2D2D" d="M1080.997,954.545c-19.371-19.363-23.211-49.04-9.348-72.154c104.469-174.192,104.469-390.61,0-564.79
				c-13.863-23.128-10.023-52.791,9.348-72.154l2.277-2.276c16.887-16.893,26.188-39.337,26.188-63.225s-9.301-46.332-26.188-63.225
				c-16.891-16.893-39.336-26.194-63.223-26.194c-23.883,0-46.34,9.302-63.227,26.194l-2.27,2.277
				c-19.371,19.363-49.047,23.218-72.16,9.347c-174.194-104.451-390.596-104.451-564.791,0
				c-23.105,13.871-52.77,10.031-72.156-9.347l-2.277-2.277c-16.883-16.893-39.344-26.194-63.223-26.194
				s-46.332,9.302-63.223,26.194c-34.852,34.856-34.852,91.577,0,126.448l2.277,2.276c19.367,19.363,23.215,49.041,9.352,72.154
				c-104.473,174.179-104.473,390.597,0,564.79c13.863,23.114,10.016,52.777-9.352,72.154l-2.277,2.277
				c-34.852,34.857-34.852,91.577,0,126.448c34.863,34.856,91.582,34.856,126.444,0l2.277-2.277
				c19.363-19.393,49.051-23.219,72.156-9.361c87.105,52.255,184.729,78.375,282.394,78.36c97.645,0,195.316-26.12,282.398-78.36
				c23.113-13.857,52.789-10.002,72.152,9.361l2.277,2.277c34.863,34.856,91.586,34.856,126.449,0
				c16.887-16.893,26.188-39.352,26.188-63.225c0-23.888-9.301-46.332-26.188-63.225L1080.997,954.545z"/>
		</g>
	</g>
	<g>
		<g>
			<path fill="#FFFFFF" d="M599.998,1047.813c-246.92,0-447.806-200.889-447.806-447.816s200.886-447.816,447.806-447.816
				c246.93,0,447.822,200.889,447.822,447.816S846.928,1047.813,599.998,1047.813z M599.998,161.853
				c-241.588,0-438.135,196.551-438.135,438.145s196.548,438.145,438.135,438.145c241.597,0,438.151-196.551,438.151-438.145
				S841.595,161.853,599.998,161.853z"/>
		</g>
	</g>
	<g>
		<g>
			<path fill="#FFFFFF" d="M599.998,194.278c-223.71,0-405.709,181.992-405.709,405.718c0,223.71,181.999,405.718,405.709,405.718
				c223.718,0,405.725-182.008,405.725-405.718C1005.724,376.271,823.717,194.278,599.998,194.278z"/>
		</g>
	</g>
	<g>
		<g>
			<path fill="#2B2D2D" d="M599.998,294.412c-168.495,0-305.578,137.083-305.578,305.587s137.083,305.567,305.578,305.567
				c168.496,0,305.578-137.062,305.578-305.567S768.493,294.412,599.998,294.412z"/>
		</g>
	</g>
	<g>
		<g>
			<g>
				<path fill="#FFFFFF" d="M727.698,398.966c0,0-1.094-0.636-3.214-1.868c-2.101-1.266-5.273-3.051-9.467-5.249
					c-8.378-4.404-20.984-10.358-37.732-15.861c-16.73-5.436-37.753-10.243-62.186-11.323c-6.088-0.248-12.429-0.384-18.852-0.072
					c-3.259,0.176-6.626,0.207-9.928,0.508c-3.292,0.312-6.628,0.628-10.009,0.948c-13.55,1.668-27.677,4.427-41.963,8.826
					c-28.541,8.741-57.838,23.861-83.819,45.997c-25.911,22.118-48.414,51.207-63.209,85.216
					c-7.508,16.936-12.854,35.126-16.03,53.889c-1.682,9.371-2.511,18.927-3.067,28.526c-0.016,4.775-0.369,9.709-0.176,14.382
					c0.128,4.963,0.208,9.983,0.685,14.669c0.589,9.524,2.197,19.271,3.989,28.827c2.134,9.523,4.484,19.05,7.799,28.291
					c6.27,18.6,15.19,36.338,26.031,52.773c10.799,16.471,23.82,31.466,38.3,44.705c14.644,13.049,30.655,24.551,47.905,33.455
					c34.295,18.12,72.706,27.137,109.587,26.863c37.244-0.229,72.8-9.103,103.278-24.443c30.523-15.228,55.993-36.161,75.291-58.961
					c19.338-22.854,32.614-47.361,41.28-70.153c4.414-11.398,7.314-22.5,9.701-32.815c1-5.199,2.123-10.169,2.711-14.996
					c0.349-2.407,0.689-4.758,1.022-7.052c0.217-2.308,0.43-4.559,0.637-6.751c0.501-4.381,0.644-8.549,0.803-12.474
					c0.216-3.919,0.327-7.611,0.299-11.036c-0.012-6.859-0.313-12.696-0.663-17.421c-0.735-9.45-1.526-14.459-1.526-14.459
					s1.03,4.959,2.223,14.39c1.181,9.42,2.351,23.391,1.368,41.182c-0.13,2.223-0.264,4.505-0.401,6.846
					c-0.253,2.332-0.512,4.721-0.777,7.168c-0.423,4.912-1.375,9.981-2.203,15.296c-2.043,10.547-4.59,21.95-8.671,33.733
					c-7.967,23.563-20.67,49.233-40.094,73.255c-19.257,24.037-45.086,46.45-76.629,62.824
					c-15.739,8.172-32.793,15.018-50.897,19.63c-9.054,2.267-18.306,4.259-27.775,5.414c-2.368,0.3-4.721,0.661-7.119,0.911
					c-2.415,0.198-4.836,0.396-7.262,0.593c-4.924,0.504-9.541,0.481-14.308,0.669c-19.592,0.426-39.266-1.746-58.819-6.205
					c-9.78-2.162-19.417-5.169-28.958-8.565c-4.698-1.892-9.495-3.582-14.092-5.776l-6.96-3.157l-6.823-3.481
					c-18.209-9.322-35.134-21.367-50.618-35.073c-15.315-13.899-29.121-29.653-40.56-47.01
					c-11.38-17.387-20.716-36.143-27.264-55.791c-3.454-9.764-5.908-19.821-8.113-29.874c-1.866-10.159-3.493-20.195-4.106-30.571
					c-0.488-5.236-0.538-10.162-0.65-15.116c-0.173-5.244,0.171-10.205,0.268-15.299c0.692-10.1,1.685-20.142,3.56-29.982
					c3.56-19.698,9.401-38.742,17.471-56.42c8.043-17.671,17.791-34.25,29.369-48.905c11.491-14.714,24.351-27.798,38.042-39.079
					c27.414-22.617,58.236-37.483,87.903-45.713c14.856-4.124,29.446-6.696,43.417-7.895c3.518-0.206,6.991-0.409,10.418-0.61
					c3.418-0.184,6.706-0.094,9.994-0.155c6.678-0.083,13.072,0.285,19.293,0.76c24.869,1.992,46,7.636,62.7,13.728
					c16.756,6.083,29.048,12.852,37.255,17.613c4.104,2.408,7.182,4.339,9.22,5.704
					C726.635,398.279,727.698,398.966,727.698,398.966z"/>
			</g>
		</g>
		<g>
			<g>
				<path fill="#FFFFFF" d="M704.772,431.423c0,0-0.917-0.515-2.692-1.513c-1.76-1.026-4.42-2.467-7.926-4.246
					c-7.004-3.574-17.559-8.322-31.505-12.737c-13.944-4.325-31.434-8.078-51.698-8.741c-20.201-0.591-43.211,1.634-66.821,9.169
					c-23.55,7.495-47.72,20.173-69.028,38.712c-10.651,9.242-20.586,19.878-29.388,31.741
					c-8.749,11.899-16.356,25.016-22.436,39.069c-12.16,28.135-17.573,60.077-14.935,92.208c0.523,7.854,1.855,15.914,3.363,23.802
					c1.797,7.86,3.738,15.732,6.504,23.356c5.207,15.358,12.628,29.985,21.587,43.557c8.947,13.589,19.689,25.989,31.66,36.921
					c12.097,10.782,25.319,20.295,39.566,27.663c28.317,14.987,60.054,22.527,90.497,22.414c30.834-0.134,60.238-7.27,85.53-19.837
					c25.311-12.475,46.5-29.656,62.624-48.413c16.145-18.81,27.34-38.997,34.745-57.813c3.656-9.447,6.251-18.592,8.322-27.134
					c1.805-8.595,3.215-16.575,3.845-23.86c0.179-1.82,0.353-3.592,0.522-5.313c0.087-1.728,0.17-3.405,0.251-5.033
					c0.168-3.252,0.365-6.317,0.361-9.159c0.056-5.695-0.13-10.545-0.378-14.473c-0.512-7.857-1.118-12.026-1.118-12.026
					s0.847,4.122,1.816,11.962c0.966,7.831,1.914,19.447,1.048,34.24c-0.322,7.403-1.396,15.549-2.858,24.378
					c-1.728,8.776-3.973,18.223-7.298,28.056c-6.71,19.59-17.337,40.94-33.57,60.915c-16.088,19.992-37.639,38.648-63.97,52.264
					c-13.131,6.814-27.377,12.475-42.486,16.306c-7.551,1.902-15.276,3.555-23.179,4.499c-3.915,0.604-7.956,0.933-12.023,1.245
					c-4.134,0.429-7.914,0.366-11.894,0.547c-16.402,0.347-32.783-1.507-49.12-5.213c-16.322-3.647-32.314-9.632-47.447-17.525
					c-15.203-7.785-29.336-17.839-42.272-29.275c-12.803-11.59-24.328-24.745-33.914-39.217
					c-9.499-14.52-17.336-30.162-22.821-46.564c-2.906-8.146-4.952-16.545-6.82-24.934c-1.583-8.481-2.936-16.853-3.483-25.523
					c-0.139-2.143-0.362-4.357-0.423-6.434l-0.143-6.186l-0.072-3.088l0.082-3.335l0.189-6.345
					c0.271-4.216,0.606-8.424,1.053-12.601c0.61-4.16,0.984-8.342,1.844-12.437c2.975-16.439,7.738-32.37,14.444-47.14
					c6.66-14.777,14.805-28.598,24.363-40.9c9.557-12.301,20.253-23.244,31.641-32.688c22.735-19.024,48.427-31.457,73.104-38.449
					c12.365-3.466,24.501-5.778,36.144-6.714c5.835-0.421,11.622-0.8,17.011-0.721c1.362-0.005,2.713-0.011,4.054-0.016
					c1.474-0.01,2.739,0.088,4.102,0.126c2.676,0.072,5.306,0.226,7.891,0.449c20.707,1.571,38.309,6.16,52.229,11.14
					c13.959,4.995,24.209,10.562,31.044,14.494c3.418,1.99,5.985,3.578,7.684,4.704
					C703.886,430.856,704.772,431.423,704.772,431.423z"/>
			</g>
		</g>
		<g>
			<g>
				<path fill="#FFFFFF" d="M685.501,461.74c0,0-0.755-0.416-2.217-1.221c-1.449-0.829-3.641-1.99-6.524-3.424
					c-5.759-2.886-14.447-6.677-25.879-10.219c-11.437-3.456-25.763-6.418-42.328-6.842c-2.067-0.083-4.169-0.077-6.301-0.043
					l-1.605,0.014c-0.21,0.006-0.667-0.003-0.676,0.015l-0.821,0.063c-1.096,0.085-2.2,0.17-3.312,0.255
					c-4.424,0.406-9.08,0.552-13.665,1.198c-4.501,0.794-9.118,1.609-13.844,2.442c-4.661,1.285-9.429,2.6-14.299,3.943
					c-19.172,6.249-38.851,16.662-56.081,31.931c-17.252,15.181-31.991,35.013-41.931,57.879c-1.3,2.83-2.163,5.856-3.276,8.787
					l-1.589,4.441c-0.561,1.473-1.069,2.966-1.391,4.518c-0.762,3.067-1.526,6.146-2.293,9.234
					c-0.344,1.551-0.865,3.068-1.066,4.654l-0.68,4.747c-0.459,3.166-0.919,6.341-1.381,9.526c-0.207,3.21-0.283,6.44-0.438,9.669
					l-0.224,4.85l-0.06,1.214l-0.03,0.608c-0.013-0.523,0.005,0.036,0.007,0.001l0.017,0.316l0.135,2.527
					c0.18,3.371,0.36,6.75,0.541,10.136c0.032,3.489,0.744,6.513,1.202,9.709c0.537,3.165,0.915,6.339,1.558,9.516l2.492,9.536
					l1.247,4.776l1.721,4.633l3.427,9.283c1.384,2.995,2.877,5.946,4.306,8.925l2.162,4.462c0.753,1.47,1.701,2.835,2.54,4.259
					l5.176,8.466c7.665,10.743,15.887,21.269,25.969,29.829c4.677,4.683,10.225,8.292,15.397,12.332
					c2.638,1.952,5.555,3.483,8.309,5.246c2.817,1.661,5.494,3.569,8.499,4.857c2.932,1.425,5.859,2.848,8.779,4.267l2.191,1.06
					l2.281,0.839l4.552,1.681c3.049,1.062,5.988,2.45,9.105,3.248c3.108,0.829,6.208,1.655,9.299,2.479
					c1.552,0.383,3.074,0.898,4.644,1.173l4.718,0.758c3.141,0.51,6.273,1.018,9.392,1.525c3.139,0.335,6.298,0.407,9.429,0.628
					l4.695,0.281l2.341,0.142c-0.031,0.008,0.482,0.006,0.004,0.024l0.303-0.013l0.605-0.026l1.21-0.051
					c3.226-0.137,6.439-0.273,9.638-0.408l4.787-0.203l4.475-0.659c2.979-0.432,5.944-0.861,8.893-1.288
					c1.48-0.144,2.951-0.472,4.417-0.863l4.39-1.068c2.915-0.728,5.841-1.371,8.71-2.151c2.807-0.986,5.598-1.967,8.372-2.942
					c5.654-1.709,10.816-4.425,16.046-6.803c20.621-10.15,37.931-24.148,51.051-39.498c13.156-15.372,22.237-31.916,28.145-47.327
					c0.766-1.924,1.519-3.818,2.26-5.68c0.608-1.905,1.107-3.811,1.653-5.668c1.024-3.73,2.187-7.297,2.996-10.794
					c0.638-3.539,1.25-6.933,1.835-10.177c0.294-1.626,0.581-3.214,0.86-4.763c0.123-1.568,0.242-3.097,0.36-4.586
					c0.231-2.985,0.449-5.81,0.654-8.469c0.262-2.656,0.391-5.167,0.384-7.495c0.05-4.663-0.102-8.636-0.301-11.853
					c-0.418-6.437-0.912-9.854-0.912-9.854s0.734,3.369,1.609,9.786c0.427,3.209,0.863,7.185,1.144,11.884
					c0.409,4.697,0,10.111-0.076,16.186c-0.04,1.521-0.08,3.082-0.122,4.682c-0.201,1.587-0.405,3.214-0.615,4.88
					c-0.423,3.339-0.865,6.833-1.326,10.476c-0.638,3.613-1.627,7.313-2.478,11.195c-0.459,1.933-0.872,3.92-1.395,5.911
					c-0.658,1.951-1.327,3.936-2.007,5.952c-5.209,16.18-13.717,33.886-26.956,50.425c-13.077,16.585-30.743,32.061-52.379,43.357
					c-5.469,2.683-10.897,5.698-16.849,7.698c-2.929,1.116-5.877,2.239-8.841,3.369c-3.032,0.92-6.129,1.7-9.222,2.56l-4.662,1.265
					c-1.548,0.452-3.122,0.847-4.769,1.065c-3.26,0.523-6.535,1.049-9.828,1.577l-4.953,0.773l-4.783,0.282
					c-3.195,0.189-6.406,0.377-9.629,0.567l-1.21,0.072l-0.604,0.035l-0.303,0.018c-0.681,0.013-0.369-0.004-0.602-0.004
					l-2.511-0.104l-5.039-0.211c-3.364-0.178-6.755-0.213-10.135-0.519c-3.363-0.486-6.738-0.973-10.126-1.461l-5.09-0.743
					c-1.695-0.272-3.344-0.787-5.023-1.171c-3.346-0.835-6.701-1.672-10.066-2.512c-3.374-0.817-6.573-2.233-9.882-3.331
					l-4.924-1.793l-2.466-0.901l-2.374-1.123c-3.162-1.515-6.331-3.032-9.506-4.553c-3.246-1.393-6.159-3.411-9.209-5.19
					c-2.988-1.882-6.136-3.54-9-5.625c-5.625-4.307-11.612-8.214-16.709-13.223c-10.918-9.214-19.927-20.493-28.234-32.116
					l-5.561-9.189c-0.9-1.546-1.905-3.034-2.714-4.627l-2.325-4.837c-1.532-3.231-3.122-6.435-4.593-9.686l-3.666-10.06
					l-1.821-5.025l-1.334-5.169l-2.628-10.327c-0.695-3.51-1.128-7.121-1.688-10.669c-0.484-3.541-1.208-7.191-1.212-10.506
					c-0.162-3.387-0.324-6.766-0.486-10.138l-0.121-2.528l-0.036-0.946l0.034-0.655l0.068-1.31l0.287-5.229
					c0.22-3.479,0.37-6.955,0.657-10.406c0.55-3.424,1.098-6.838,1.645-10.242l0.826-5.093c0.253-1.699,0.826-3.329,1.223-4.993
					c0.881-3.307,1.76-6.603,2.634-9.887c0.382-1.659,0.951-3.255,1.574-4.831l1.779-4.745c1.243-3.131,2.241-6.351,3.679-9.367
					c10.955-24.43,27.406-45.094,46.105-60.674c18.656-15.76,39.859-25.931,60.158-31.681c5.15-1.214,10.162-2.465,15.094-3.552
					c5.049-0.662,9.981-1.31,14.79-1.94c4.762-0.409,9.312-0.309,13.784-0.484c1.115-0.027,2.222-0.054,3.321-0.081l0.822-0.02
					c0.538-0.017,0.628,0.016,0.963,0.022l1.655,0.072c2.198,0.081,4.36,0.188,6.483,0.384c17.008,1.331,31.451,5.129,42.865,9.24
					c11.446,4.123,19.83,8.732,25.422,11.977c2.795,1.645,4.894,2.953,6.283,3.882C684.777,461.273,685.501,461.74,685.501,461.74z"
					/>
			</g>
		</g>
		<g>
			<g>
				<path fill="#FFFFFF" d="M668.163,495.919c0,0-0.577-0.329-1.694-0.966c-1.107-0.653-2.779-1.583-4.986-2.711
					c-4.41-2.263-11.032-5.34-19.797-8.138c-8.747-2.803-19.718-5.17-32.4-5.75c-3.113-0.113-6.569-0.161-9.671-0.017
					c-3.426,0.281-6.949,0.57-10.567,0.867c-7.042,1.016-14.141,2.233-21.579,4.609c-14.747,4.532-29.79,12.385-43.239,23.669
					c-13.349,11.396-24.677,26.47-32.435,43.787c-1.1,2.109-1.856,4.373-2.64,6.633c-0.8,2.252-1.602,4.512-2.408,6.781
					c-0.575,2.337-1.152,4.682-1.731,7.035c-0.578,2.351-1.239,4.692-1.473,7.127c-0.342,2.411-0.685,4.83-1.029,7.254
					c-0.474,2.409-0.287,4.895-0.47,7.345l-0.162,3.692l-0.091,1.849l-0.046,0.925c-0.005,0.144-0.015-0.437-0.003-0.075
					l0.013,0.244l0.027,0.487c0.141,2.597,0.282,5.199,0.423,7.807c1.116,19.673,8.219,39.3,19.121,56.141
					c5.652,8.297,11.952,16.268,19.526,22.875c3.565,3.554,7.681,6.426,11.657,9.451c1.925,1.608,4.203,2.684,6.28,4.054
					c2.158,1.234,4.158,2.755,6.432,3.758c4.481,2.122,8.822,4.529,13.519,6.033c2.311,0.835,4.567,1.828,6.907,2.539
					c2.363,0.636,4.721,1.271,7.071,1.903l3.524,0.947l3.59,0.584c2.391,0.395,4.774,0.789,7.148,1.181
					c2.382,0.335,4.792,0.341,7.175,0.532l3.575,0.224l1.783,0.114l0.445,0.028c-0.503,0.019-0.006,0-0.057,0.002l0.233-0.009
					l0.933-0.037c2.485-0.099,4.96-0.198,7.424-0.296l3.688-0.147c1.168-0.122,2.271-0.322,3.406-0.475
					c4.505-0.664,8.987-1.132,13.449-2.389c2.225-0.543,4.457-1.029,6.65-1.606c2.144-0.743,4.275-1.482,6.394-2.216
					c4.32-1.282,8.262-3.346,12.263-5.139c15.77-7.68,29.027-18.342,39.081-30.065c10.126-11.704,17.112-24.372,21.61-36.196
					c0.573-1.477,1.225-2.905,1.71-4.36c0.43-1.474,0.852-2.923,1.267-4.346c0.758-2.865,1.794-5.57,2.293-8.278
					c0.955-5.417,2.261-10.377,2.436-14.979c1.048-9.149,0.996-16.446,0.653-21.398c-0.312-4.957-0.689-7.592-0.689-7.592
					s0.616,2.584,1.385,7.518c0.761,4.931,1.623,12.254,1.21,21.642c0.171,4.719-0.759,9.852-1.328,15.515
					c-0.297,2.833-1.149,5.679-1.765,8.693c-0.339,1.502-0.684,3.031-1.035,4.587c-0.408,1.54-0.984,3.058-1.483,4.629
					c-3.877,12.581-10.358,26.365-20.539,39.256c-10.011,12.963-23.626,25.109-40.418,33.94c-4.243,2.099-8.453,4.463-13.073,6.037
					c-2.275,0.876-4.563,1.758-6.865,2.645c-2.357,0.717-4.761,1.339-7.165,2.016c-2.441,0.59-4.759,1.495-7.344,1.829
					c-2.548,0.414-5.108,0.83-7.68,1.247c-1.282,0.194-2.593,0.434-3.861,0.587l-3.683,0.226c-2.462,0.151-4.934,0.303-7.416,0.456
					l-0.932,0.057l-0.756,0.032l-0.488-0.019l-1.954-0.076l-3.922-0.155c-2.616-0.149-5.262-0.118-7.886-0.425
					c-2.619-0.372-5.249-0.745-7.886-1.12l-3.965-0.571l-3.905-0.947c-2.607-0.645-5.222-1.292-7.844-1.94
					c-2.598-0.732-5.115-1.755-7.688-2.628c-5.197-1.648-10.026-4.236-14.99-6.568c-2.516-1.109-4.751-2.742-7.145-4.097
					c-2.31-1.491-4.82-2.697-6.971-4.44c-4.431-3.296-8.987-6.471-12.972-10.356c-8.411-7.272-15.497-16.008-21.788-25.196
					c-11.979-18.802-19.653-40.44-20.769-62.58c-0.123-2.609-0.246-5.212-0.368-7.81l-0.045-1.292l0.054-1.021l0.107-2.04
					l0.231-4.072c0.252-2.702,0.142-5.43,0.7-8.085c0.435-2.665,0.869-5.322,1.302-7.972c0.331-2.668,1.096-5.238,1.786-7.814
					c0.696-2.572,1.39-5.135,2.082-7.688c0.933-2.475,1.864-4.941,2.791-7.396c0.917-2.459,1.81-4.915,3.053-7.209
					c8.801-18.876,21.86-34.761,36.671-46.536c14.892-11.755,31.463-19.341,47.332-23.351c7.861-2.087,15.895-3.148,23.256-3.701
					c3.628-0.07,7.163-0.139,10.6-0.205c3.768,0.056,6.982,0.328,10.322,0.648c13.144,1.364,24.212,4.731,32.897,8.246
					c8.733,3.473,15.05,7.299,19.279,9.935c2.114,1.337,3.688,2.411,4.732,3.163C667.618,495.539,668.163,495.919,668.163,495.919z"
					/>
			</g>
		</g>
	</g>
	<g>
		<g>
			<circle fill="#FFFFFF" cx="176.504" cy="180.399" r="41.047"/>
		</g>
		<g>
			<circle fill="#2B2D2D" cx="176.504" cy="180.399" r="20.749"/>
		</g>
		<g>
			<circle fill="#FFFFFF" cx="1020.973" cy="180.399" r="41.047"/>
		</g>
		<g>
			<circle fill="#2B2D2D" cx="1020.973" cy="180.399" r="20.749"/>
		</g>
	</g>
	<g>
		<g>
			<circle fill="#FFFFFF" cx="176.504" cy="1021.8" r="41.047"/>
		</g>
		<g>
			<circle fill="#2B2D2D" cx="176.504" cy="1021.8" r="20.749"/>
		</g>
		<g>
			<circle fill="#FFFFFF" cx="1020.973" cy="1021.8" r="41.047"/>
		</g>
		<g>
			<circle fill="#2B2D2D" cx="1020.973" cy="1021.8" r="20.749"/>
		</g>
	</g>
</g>
</svg>
