<?xml version="1.0" encoding="utf-8"?>
<!--Designed by Vexels.com - 2018 All Rights Reserved - https://vexels.com/terms-and-conditions/-->
<!DOCTYPE svg PUBLIC "-//W3C//DTD SVG 1.1//EN" "http://www.w3.org/Graphics/SVG/1.1/DTD/svg11.dtd">
<svg version="1.1" id="Layer_1" xmlns="http://www.w3.org/2000/svg" xmlns:xlink="http://www.w3.org/1999/xlink" x="0px" y="0px"
	 width="1200px" height="1200px" viewBox="0 0 1200 1200" enable-background="new 0 0 1200 1200" xml:space="preserve">
<g>
	<g>
		<path fill="#2B2D2D" d="M1080.998,954.546c-19.371-19.363-23.211-49.04-9.348-72.154c104.469-174.193,104.469-390.612,0-564.792
			c-13.863-23.128-10.023-52.791,9.348-72.154l2.277-2.276c16.887-16.893,26.188-39.337,26.188-63.225s-9.301-46.332-26.188-63.225
			c-16.891-16.893-39.336-26.194-63.223-26.194c-23.883,0-46.34,9.302-63.227,26.194l-2.27,2.277
			c-19.371,19.363-49.047,23.218-72.16,9.347c-174.195-104.451-390.598-104.451-564.793,0c-23.105,13.871-52.77,10.031-72.156-9.347
			l-2.277-2.277c-16.883-16.893-39.344-26.194-63.223-26.194s-46.332,9.302-63.223,26.194c-34.852,34.856-34.852,91.577,0,126.449
			l2.277,2.276c19.367,19.363,23.215,49.041,9.352,72.154c-104.473,174.18-104.473,390.599,0,564.792
			c13.863,23.114,10.016,52.777-9.352,72.154l-2.277,2.277c-34.852,34.857-34.852,91.577,0,126.449
			c34.863,34.856,91.582,34.856,126.445,0l2.277-2.277c19.363-19.393,49.051-23.219,72.156-9.361
			c87.105,52.255,184.73,78.375,282.395,78.36c97.645,0,195.317-26.12,282.399-78.36c23.113-13.857,52.789-10.002,72.152,9.361
			l2.277,2.277c34.863,34.856,91.586,34.856,126.449,0c16.887-16.893,26.188-39.352,26.188-63.225
			c0-23.888-9.301-46.332-26.188-63.225L1080.998,954.546z"/>
	</g>
	<g>
		<path fill="#FFFFFF" d="M599.998,194.276c-223.711,0-405.711,181.993-405.711,405.72c0,223.711,182,405.72,405.711,405.72
			c223.719,0,405.727-182.009,405.727-405.72C1005.725,376.27,823.717,194.276,599.998,194.276z"/>
	</g>
	<g>
		<path fill="#2B2D2D" d="M599.998,369.141c-127.289,0-230.848,103.559-230.848,230.855s103.559,230.84,230.848,230.84
			c127.29,0,230.848-103.543,230.848-230.84S727.287,369.141,599.998,369.141z"/>
	</g>
	<g>
		<path fill="#FFFFFF" d="M599.998,451.431c-81.91,0-148.555,66.647-148.555,148.565c0,8.186,6.645,14.839,14.836,14.839
			c8.188,0,14.832-6.653,14.832-14.839c0-65.562,53.336-118.903,118.887-118.903c8.196,0,14.833-6.638,14.833-14.823
			C614.83,458.083,608.193,451.431,599.998,451.431z"/>
	</g>
</g>
</svg>
